# xmcd
# Track frame offsets:
# 183
# 13158
# 26035
# 32908
# 42070
# 52583
# 65558
# 75960
# 87410
# 98055
# 108395
# 119858
# 133385
# 145700
# 155115
# 166088
# 179310
# 190428
# 203650
# 210748
# 219243
# 229733
# 240523
# 252015
# 262435
# 274955
#
# Disc length: 3809 seconds
# Revision: 0
# Processed by: cddbd v1.4PL0 Copyright (c) Steve Scherf et al.
# Submitted via: VisiTrax 2.9.5.180 - For more info visit www.synapsa.com
#
DISCID=780edf1a
DTITLE=Faron Young - Four in the morning
DYEAR=1900
DGENRE=
TTITLE0=Four in the morning
TTITLE1=Seasons come, seasons go
TTITLE2=Alone with you
TTITLE3=A heartache for a keepsake
TTITLE4=If you ain't lovin'
TTITLE5=Apartment #9
TTITLE6=Live fast, love hard and die young
TTITLE7=Your cheating heart
TTITLE8=satisfied mind
TTITLE9=As far as I'm concerned
TTITLE10=Is it really over
TTITLE11=Chapel in the moonlight
TTITLE12=Sweet dreams
TTITLE13=Some of those memories
TTITLE14=Wine me up
TTITLE15=There goes my everything
TTITLE16=Crying time
TTITLE17=Swingin' doors
TTITLE18=Giong steady
TTITLE19=Tiger by the tail
TTITLE20=Here comes my baby back again
TTITLE21=Once a day
TTITLE22=Sweet thang
TTITLE23=I could never be ashamed of you
TTITLE24=Are you sincere
TTITLE25=Memphis
EXTD=
EXTT0=
EXTT1=
EXTT2=
EXTT3=
EXTT4=
EXTT5=
EXTT6=
EXTT7=
EXTT8=
EXTT9=
EXTT10=
EXTT11=
EXTT12=
EXTT13=
EXTT14=
EXTT15=
EXTT16=
EXTT17=
EXTT18=
EXTT19=
EXTT20=
EXTT21=
EXTT22=
EXTT23=
EXTT24=
EXTT25=
PLAYORDER=
